<svg width="460" height="87" viewBox="0 0 460 87" version="1.1" xmlns="http://www.w3.org/2000/svg" xml:space="preserve" style="fill-rule:evenodd;clip-rule:evenodd;stroke-linejoin:round;stroke-miterlimit:2;">
    <path d="M426.231,73.304l-0.605,10.886c-0.058,1.202 0.041,2.159 1.228,2.159l0.45,-0.033l0,0.357c-0.663,0 -1.888,-0.175 -2.24,-0.175c-0.314,0 -0.984,0.175 -1.481,0.175c-0.46,0 -0.538,0 -0.866,-0.047l0,-0.327l0.656,0.05c0.454,0 1.377,0 1.573,-2.439l0.785,-11.179c0.122,-1.61 -0.819,-1.681 -1.698,-1.681l0,-0.273c0.775,-0.064 0.879,-0.064 1.119,-0.064c0.579,0 1.84,0.034 2.087,0.674l4.969,12.301l4.63,-11.412c0.555,-1.442 1.729,-1.563 2.679,-1.563c0.427,0 0.677,0.034 0.964,0.064l0,0.317l-0.558,-0.044l-0.632,0.044c-0.443,0.421 -0.768,0.714 -0.626,2.004l0.971,11.011c0.094,1.24 0.351,2.24 1.474,2.24l0.69,-0.091l0,0.334c-0.304,0.057 -0.578,0.081 -0.964,0.081c-0.328,0 -1.64,-0.175 -1.89,-0.175c-0.355,0 -1.867,0.175 -2.192,0.175c-0.359,0 -0.423,0 -0.592,-0.024l0,-0.333l0.578,0.033c1.198,0 1.282,-0.795 1.282,-1.667c0,-0.101 0,-0.627 -0.061,-1.321l-0.913,-9.966l-0.054,0l-5.145,12.564l-0.459,0.09l-5.094,-12.745l-0.065,0Zm-144.225,5.11c0,-4.942 -3.558,-8.076 -8.584,-8.076c-4.877,0 -8.686,4.077 -8.686,8.403c0,4.188 2.919,7.931 8.737,7.931c5.604,0 8.533,-4.855 8.533,-8.258Zm-134.449,0c0,-4.942 -3.558,-8.076 -8.584,-8.076c-4.881,0 -8.686,4.077 -8.686,8.403c0,4.188 2.915,7.931 8.74,7.931c5.611,0 8.53,-4.855 8.53,-8.258Zm312.443,0c0,3.403 -2.926,8.258 -8.52,8.258c-5.824,0 -8.757,-3.743 -8.757,-7.931c0,-4.326 3.822,-8.403 8.693,-8.403c5.026,0 8.584,3.134 8.584,8.076Zm-99.027,0c0,-4.942 -3.562,-8.076 -8.588,-8.076c-4.871,0 -8.683,4.077 -8.683,8.403c0,4.188 2.93,7.931 8.74,7.931c5.619,0 8.531,-4.855 8.531,-8.258Zm-135.485,-7.513l0,-0.35c0.199,0 0.531,-0.034 1.197,-0.034c0.853,0 1.546,0.061 1.732,0.185l0.632,0.462l11.45,12.85l0,-10.542c0,-1.324 -0.156,-1.799 -0.467,-2.126c-0.19,-0.273 -0.761,-0.445 -1.103,-0.445l-0.639,0.024l0,-0.374c0.162,-0.034 0.761,-0.034 1.17,-0.034c0.342,0 0.788,0.101 1.468,0.101c0.606,0 1.147,-0.101 1.62,-0.101l0.626,0.034l0,0.374l-0.477,-0.024c-1.163,0 -1.549,0.505 -1.549,2.571l0,12.826l-0.176,0.337l-0.193,0.037l-0.345,-0.064l-12.051,-13.824l0,10.755c0,1.331 0.162,1.799 0.477,2.129c0.189,0.27 0.761,0.458 1.093,0.458l0.635,-0.03l0,0.354c-0.159,0.03 -0.767,0.03 -1.163,0.03c-0.345,0 -0.781,-0.077 -1.478,-0.077c-0.609,0 -1.13,0.077 -1.604,0.077l-0.632,-0.03l0,-0.354l0.47,0.03c1.157,0 1.549,-0.522 1.549,-2.587l0,-11.533l-0.602,-0.566c-0.466,-0.461 -0.585,-0.539 -1.255,-0.539l-0.385,0Zm-96.594,-0.35l0,0.374l-0.474,-0.024c-1.163,0 -1.539,0.505 -1.539,2.571l0,12.826l-0.189,0.337l-0.19,0.037l-0.345,-0.064l-12.051,-13.824l0,10.755c0,1.331 0.159,1.799 0.474,2.129c0.189,0.27 0.751,0.458 1.102,0.458l0.629,-0.03l0,0.354c-0.139,0.026 -0.607,0.03 -0.993,0.03l-0.16,0c-0.341,0 -0.774,-0.073 -1.428,-0.077l-0.064,0c-0.586,0 -1.093,0.072 -1.558,0.077l-0.045,0l-0.632,-0.03l0,-0.354l0.477,0.03l0.027,0c1.132,-0.008 1.515,-0.538 1.515,-2.587l0,-11.533l-0.599,-0.566c-0.473,-0.461 -0.605,-0.539 -1.261,-0.539l-0.379,0l0,-0.35c0.196,0 0.548,-0.034 1.204,-0.034l0.079,0c0.812,0.004 1.459,0.065 1.653,0.185l0.622,0.462l11.453,12.85l0,-10.542c0,-1.324 -0.156,-1.799 -0.474,-2.126c-0.18,-0.269 -0.727,-0.44 -1.086,-0.445l-0.016,0l-0.619,0.024l0,-0.374c0.145,-0.034 0.75,-0.034 1.163,-0.034l0.033,0c0.342,0.006 0.76,0.101 1.438,0.101l0.028,0c0.584,-0.003 1.113,-0.101 1.569,-0.101l0.636,0.034Zm258.211,12.988l0.345,0.114c-0.903,1.405 -2.074,2.015 -2.953,2.382c-1.255,0.512 -2.486,0.6 -4.029,0.6c-5.837,0 -8.651,-4.269 -8.651,-7.557c0,-7.146 5.942,-8.74 8.55,-8.74c1.109,0 1.776,0.213 3.088,0.641c0.768,0.249 0.944,0.303 1.614,0.303c0.47,0 0.696,-0.054 1.126,-0.246c0,1.112 0.507,1.715 0.507,3.022c0,0.549 -0.061,0.913 -0.155,1.28l-0.288,-0.067c0.064,-0.202 0.125,-0.388 0.125,-0.664c0,-1.715 -3.331,-3.706 -5.916,-3.706c-2.753,0 -6.524,1.991 -6.524,7.213c0,3.703 1.908,7.952 7.16,7.952c0.497,0 1.485,0 2.983,-0.462c1.326,-0.401 2.517,-1.216 3.018,-2.065Zm-290.982,-3.105l-0.22,0c-0.109,-1.732 -0.764,-2.03 -3.333,-2.041l-0.147,0c-0.499,0 -1.066,0.009 -1.712,0.02l0,6.523c0,0.7 0.609,1.031 1.197,1.031l1.6,0c0.059,0 1.648,-0.001 3.213,-0.742c1.735,-0.805 1.762,-1.047 1.85,-1.728l0.322,0c-0.088,0.59 -0.152,0.852 -0.541,1.408l-1.218,1.702c-1.252,-0.154 -5.465,-0.203 -7.092,-0.206l-0.15,0c-0.727,0 -1.493,0.073 -2.225,0.077l-0.071,0.001l-0.727,-0.054l0,-0.361l0.608,0.061l0.023,0c0.24,-0.004 0.633,-0.067 0.921,-0.249c0.396,-0.388 0.558,-0.971 0.558,-1.917l0,-11.301c0,-0.885 -0.073,-1.745 -1.283,-1.758l-0.029,0c-0.296,0 -0.372,0 -0.574,0.018l-0.096,0.009l0,-0.351c0.281,-0.057 0.507,-0.087 0.917,-0.087l0.052,0c0.592,0.008 2.689,0.128 3.161,0.128l3.771,0l1.603,-0.041l0.014,0.036c0.158,0.401 0.768,1.722 0.893,2.009c0.206,0.493 0.219,0.681 0.22,1.074l0,0.082l-0.247,0c-0.03,-2.106 -3.387,-2.633 -5.481,-2.641l-0.049,0c-0.345,0 -1.14,0.03 -1.14,0.593l0,6.101l2.77,0c1.505,0 1.823,-0.785 1.823,-1.149c0,-0.229 -0.101,-0.515 -0.149,-0.798l0.193,-0.115l0.018,0.031c0.185,0.309 0.187,0.424 0.259,1.246c0.092,1.237 0.092,1.398 0.308,2.011c0.178,0.468 0.189,0.915 0.19,1.302l0,0.076Zm124.359,0l-0.224,0c-0.118,-2.092 -1.065,-2.092 -5.178,-2.021l0,6.523c0,0.7 0.605,1.031 1.194,1.031l1.603,0c0.069,0 1.628,-0.001 3.203,-0.742c1.739,-0.805 1.763,-1.047 1.867,-1.728l0.315,0c-0.091,0.59 -0.156,0.852 -0.535,1.408l-1.227,1.702c-1.302,-0.159 -5.73,-0.206 -7.252,-0.206c-0.731,0 -1.522,0.078 -2.286,0.078l-0.724,-0.054l0,-0.361l0.608,0.061c0.237,0 0.653,-0.061 0.931,-0.249c0.412,-0.388 0.568,-0.971 0.568,-1.917l0,-11.301c0,-0.892 -0.051,-1.758 -1.316,-1.758c-0.352,0 -0.382,0 -0.67,0.027l0,-0.351c0.288,-0.057 0.515,-0.087 0.917,-0.087c0.501,0 2.743,0.128 3.213,0.128l3.778,0l1.6,-0.041c0.122,0.351 0.792,1.749 0.91,2.045c0.223,0.526 0.223,0.704 0.223,1.156l-0.247,0c-0.037,-2.123 -3.429,-2.641 -5.533,-2.641c-0.355,0 -1.14,0.03 -1.14,0.593l0,6.101l2.767,0c1.519,0 1.819,-0.785 1.819,-1.149c0,-0.229 -0.087,-0.515 -0.162,-0.798l0.203,-0.115c0.21,0.334 0.21,0.428 0.274,1.277c0.102,1.237 0.102,1.398 0.311,2.011c0.19,0.499 0.19,0.974 0.19,1.378Zm189.82,-2.504l0,6.85c0,0.727 0.368,1.186 1.045,1.384c0.304,0 0.588,-0.037 0.835,-0.07l0,0.33c-0.247,0.027 -0.456,0.057 -0.754,0.057c-0.345,0 -1.542,-0.145 -2.232,-0.145c-0.477,0 -1.509,0.145 -1.918,0.145c-0.244,0 -0.44,0 -0.758,-0.057l0,-0.351l0.67,0.054l0.751,-0.054c0.571,-0.586 0.69,-0.903 0.69,-1.896l0,-11.799c0,-0.634 -0.048,-1.479 -1.174,-1.479l-0.643,0.027l0,-0.378c0.376,-0.03 0.376,-0.03 0.856,-0.03l1.776,0.098l2.489,-0.098c0.41,0 0.883,-0.03 1.265,-0.03c3.055,0 4.966,1.614 4.966,3.969c0,1.957 -1.732,3.625 -4.874,3.8c1.224,1.348 1.447,1.688 3.277,4.639c0.998,1.614 2.107,3.403 3.538,3.403c0.413,0 0.619,-0.087 0.984,-0.226l0,0.226c-0.443,0.182 -0.815,0.307 -1.867,0.307c-1.938,0 -2.736,-0.779 -5.087,-4.71c-0.541,-0.897 -2.08,-3.305 -2.574,-3.572l-1.261,-0.394Zm-107.381,8.248l0,0.272c-0.2,0.031 -0.22,0.031 -0.602,0.031c-0.247,0 -1.397,-0.105 -1.695,-0.105c-0.534,0 -1.322,0.105 -1.637,0.105c-0.208,0 -0.303,0 -0.381,-0.007c-0.311,0.082 -0.7,0.132 -1.345,0.132c-1.955,0 -2.737,-0.779 -5.098,-4.71c-0.537,-0.897 -2.09,-3.305 -2.59,-3.572l-1.252,-0.394l0,6.85c0,0.727 0.382,1.186 1.038,1.384c0.315,0 0.596,-0.037 0.849,-0.07l0,0.33c-0.253,0.027 -0.473,0.057 -0.761,0.057c-0.345,0 -1.535,-0.145 -2.229,-0.145c-0.463,0 -1.515,0.145 -1.921,0.145c-0.253,0 -0.443,0 -0.74,-0.057l0,-0.351l0.642,0.054l0.765,-0.054c0.558,-0.586 0.686,-0.903 0.686,-1.896l0,-11.799c0,-0.634 -0.071,-1.479 -1.16,-1.479l-0.656,0.027l0,-0.378c0.365,-0.03 0.365,-0.03 0.846,-0.03c0.284,0 1.538,0.098 1.789,0.098l2.486,-0.098c0.416,0 0.883,-0.03 1.265,-0.03c3.044,0 4.965,1.614 4.965,3.969c0,1.957 -1.718,3.625 -4.874,3.8c1.228,1.348 1.438,1.688 3.284,4.639c0.981,1.614 2.094,3.403 3.538,3.403c0.121,0 0.222,-0.007 0.313,-0.02l0,-0.152c0.167,0.028 0.258,0.041 0.403,0.044c0.079,-0.029 0.163,-0.061 0.262,-0.098l0,0.096c0.068,-0.001 0.148,-0.003 0.242,-0.005c0.318,-0.226 0.923,-0.677 1.366,-1.776l5.534,-13.897l0.128,-0.152l0.244,0l0.162,0.209l5.709,14.302c0.328,0.785 0.423,0.886 0.772,1.216c0.28,0.112 0.436,0.112 0.632,0.112l0.474,-0.014l0,0.286l-0.359,0.031c-0.051,0 -1.891,-0.105 -2.249,-0.105c-0.311,0 -1.708,0.105 -1.989,0.105c-0.365,0 -0.423,0 -0.653,-0.031l0,-0.323c0.46,0.051 0.558,0.051 1.086,0.037c0.375,-0.226 0.521,-0.337 0.521,-0.718c0,-0.08 0,-0.421 -0.146,-0.754l-2.127,-5.297l-5.101,0l-1.674,4.104c-0.135,0.303 -0.399,1.169 -0.399,1.654c0,0.506 0.223,0.755 0.399,0.944l0.666,0.081l0.572,0Zm-95.822,-12.058l-0.318,0c0.034,-0.216 0.163,-0.916 0.163,-1.307c0,-0.125 -1.069,-1.954 -3.021,-1.954c-1.319,0 -2.394,0.812 -2.394,2.004c0,0.644 0.155,1.594 3.054,3.912l1.245,1.011c1.931,1.519 2.804,2.975 2.804,4.71c0,1.344 -0.809,4.016 -5.04,4.016c-1.867,0 -2.757,-0.91 -4.15,-0.91c0,-0.822 -0.426,-2.038 -0.426,-2.85c0,-0.293 0,-0.704 0.115,-1.014l0.294,0c-0.034,0.286 -0.061,0.485 -0.061,0.758c0,0.502 0.061,1.044 0.216,1.344c0.028,0.057 0.758,0.883 1.475,1.364c0.403,0.304 1.204,0.86 2.682,0.86c1.881,0 3.45,-1.254 3.45,-3.134c0,-1.954 -1.718,-3.392 -2.827,-4.299l-1.292,-1.071c-1.857,-1.52 -2.875,-2.379 -2.875,-4.053c0,-1.432 1.265,-3.15 3.598,-3.15c0.975,0 1.478,0.192 3.308,0.869c0.183,0.583 0.22,0.849 0.22,1.432c0,0.276 0,0.758 -0.22,1.462Zm-35.974,0l-0.308,0c0.034,-0.216 0.162,-0.916 0.162,-1.307c0,-0.125 -1.072,-1.954 -3.017,-1.954c-1.326,0 -2.388,0.812 -2.388,2.004c0,0.644 0.156,1.594 3.044,3.912l1.255,1.011c1.931,1.519 2.804,2.975 2.804,4.71c0,1.344 -0.822,4.016 -5.043,4.016c-1.87,0 -2.76,-0.91 -4.133,-0.91c0,-0.822 -0.457,-2.038 -0.457,-2.85c0,-0.293 0,-0.704 0.135,-1.014l0.291,0c-0.04,0.286 -0.067,0.485 -0.067,0.758c0,0.502 0.067,1.044 0.209,1.344c0.044,0.057 0.761,0.883 1.479,1.364c0.416,0.304 1.2,0.86 2.678,0.86c1.884,0 3.46,-1.254 3.46,-3.134c0,-1.954 -1.735,-3.392 -2.827,-4.299l-1.299,-1.071c-1.854,-1.52 -2.855,-2.379 -2.855,-4.053c0,-1.432 1.259,-3.15 3.582,-3.15c0.978,0 1.482,0.192 3.295,0.869c0.202,0.583 0.236,0.849 0.236,1.432c0,0.276 0,0.758 -0.236,1.462Zm-12.542,0l-0.312,0c0.041,-0.216 0.163,-0.916 0.163,-1.307c0,-0.125 -1.076,-1.954 -3.017,-1.954c-1.326,0 -2.405,0.812 -2.405,2.004c0,0.644 0.169,1.594 3.074,3.912l1.248,1.011c1.922,1.519 2.801,2.975 2.801,4.71c0,1.344 -0.822,4.016 -5.03,4.016c-1.89,0 -2.76,-0.91 -4.143,-0.91c0,-0.822 -0.446,-2.038 -0.446,-2.85c0,-0.293 0,-0.704 0.115,-1.014l0.28,0c-0.027,0.286 -0.05,0.485 -0.05,0.758c0,0.502 0.05,1.044 0.213,1.344c0.03,0.057 0.754,0.883 1.481,1.364c0.409,0.304 1.187,0.86 2.682,0.86c1.867,0 3.454,-1.254 3.454,-3.134c0,-1.954 -1.735,-3.392 -2.831,-4.299l-1.289,-1.071c-1.86,-1.52 -2.861,-2.379 -2.861,-4.053c0,-1.432 1.254,-3.15 3.575,-3.15c0.984,0 1.481,0.192 3.298,0.869c0.202,0.583 0.24,0.849 0.24,1.432c0,0.276 0,0.758 -0.24,1.462Zm93.108,12.008l0,0.296c-0.22,0.027 -0.45,0.058 -0.845,0.058c-0.383,0 -1.33,-0.081 -2.067,-0.081c-0.676,0 -1.167,0.081 -1.904,0.081l-0.782,-0.031l0,-0.357l0.592,0.034l0.663,-0.189c0.264,-0.242 0.48,-0.599 0.48,-1.597l0,-11.755c0,-1.202 -0.568,-1.688 -1.028,-1.688c-0.135,0 -0.206,0 -0.859,0.027l0,-0.377c0.284,-0.03 0.308,-0.03 0.653,-0.03c0.325,0 1.809,0.155 2.11,0.155c0.315,0 1.702,-0.155 1.979,-0.155c0.616,0 0.66,0 1.072,0.097l0,0.327l-0.456,-0.044c-1.701,0 -1.701,1.389 -1.701,2.059l0,4.936l9.145,0l0,-5.051c0,-1.014 -0.409,-1.944 -1.106,-1.944c-0.301,0 -0.646,0.027 -0.977,0.027l0,-0.35c0.578,-0.027 0.768,-0.057 1.17,-0.057c0.443,0 1.282,0.155 1.803,0.155c0.524,0 1.214,-0.155 2.357,-0.155l0.498,0.03l0,0.377l-0.471,-0.027c-0.307,0 -0.754,0.078 -0.916,0.209c-0.179,0.118 -0.596,0.62 -0.596,1.735l0,11.334c0,1.129 0.417,1.611 0.596,1.732c0.162,0.125 0.609,0.219 0.916,0.219l0.471,-0.034l0,0.357l-0.498,0.031c-1.143,0 -1.833,-0.149 -2.357,-0.149c-0.521,0 -1.36,0.149 -1.803,0.149c-0.402,0 -0.592,-0.031 -1.17,-0.058l0,-0.33c0.331,0 0.676,0.034 0.977,0.034c0.697,0 1.106,-0.957 1.106,-1.951l0,-5.734l-9.145,0l0,5.977c0,1.088 0.807,1.644 1.16,1.708l0.933,0Zm-74.538,0.05l0,0.272c-0.203,0.031 -0.23,0.031 -0.599,0.031c-0.267,0 -1.39,-0.105 -1.698,-0.105c-0.535,0 -1.326,0.105 -1.64,0.105c-0.349,0 -0.379,0 -0.538,-0.031l0,-0.323c0.277,0.051 0.351,0.051 0.903,0.037c0.324,-0.226 0.93,-0.677 1.373,-1.776l5.527,-13.897l0.135,-0.152l0.237,0l0.155,0.209l5.73,14.302c0.311,0.785 0.416,0.886 0.764,1.216c0.278,0.112 0.433,0.112 0.626,0.112l0.474,-0.014l0,0.286l-0.352,0.031c-0.061,0 -1.898,-0.105 -2.259,-0.105c-0.318,0 -1.712,0.105 -1.983,0.105c-0.385,0 -0.412,0 -0.673,-0.031l0,-0.323c0.488,0.051 0.579,0.051 1.12,0.037c0.365,-0.226 0.484,-0.337 0.484,-0.718c0,-0.08 0,-0.421 -0.119,-0.754l-2.144,-5.297l-5.101,0l-1.66,4.104c-0.122,0.303 -0.41,1.169 -0.41,1.654c0,0.506 0.22,0.755 0.41,0.944l0.659,0.081l0.579,0Zm216.017,0l0,0.272c-0.193,0.031 -0.23,0.031 -0.609,0.031c-0.233,0 -1.366,-0.105 -1.678,-0.105c-0.544,0 -1.342,0.105 -1.657,0.105c-0.331,0 -0.365,0 -0.534,-0.031l0,-0.323c0.291,0.051 0.358,0.051 0.923,0.037c0.304,-0.226 0.9,-0.677 1.35,-1.776l5.53,-13.897l0.132,-0.152l0.26,0l0.152,0.209l5.723,14.302c0.315,0.785 0.399,0.886 0.751,1.216c0.298,0.112 0.447,0.112 0.629,0.112l0.474,-0.014l0,0.286l-0.349,0.031c-0.064,0 -1.884,-0.105 -2.259,-0.105c-0.318,0 -1.691,0.105 -1.979,0.105c-0.392,0 -0.402,0 -0.663,-0.031l0,-0.323c0.477,0.051 0.568,0.051 1.11,0.037c0.368,-0.226 0.497,-0.337 0.497,-0.718c0,-0.08 0,-0.421 -0.129,-0.754l-2.137,-5.297l-5.101,0l-1.664,4.104c-0.125,0.303 -0.399,1.169 -0.399,1.654c0,0.506 0.199,0.755 0.399,0.944l0.66,0.081l0.568,0Zm-318.29,-15.661c1.681,0.003 4.256,0.071 6.307,2.268c1.36,1.492 2.178,3.48 2.178,5.599c0,2.91 -1.839,8.056 -8.422,8.096l-0.077,0c-1.908,0 -3.147,-0.14 -4.337,-0.144l-0.057,0c-0.623,0 -2.133,0.14 -2.574,0.144l-0.02,0c-0.335,0 -0.531,-0.03 -0.751,-0.03l0,-0.323l0.626,0.037l0.033,-0.001c0.703,-0.014 1.292,-0.497 1.292,-2.324l0,-11.31c0,-1.55 -0.754,-1.675 -1.894,-1.675l0,-0.337l0.057,0.001c1.189,0.006 1.977,0.215 2.649,0.215l0.027,0c0.575,-0.007 2.369,-0.216 4.803,-0.216l0.16,0Zm250.519,15.933c0.223,0 0.419,0.03 0.758,0.03c0.416,0 1.955,-0.144 2.574,-0.144c1.231,0 2.452,0.144 4.413,0.144c6.65,0 8.49,-5.175 8.49,-8.096c0,-2.119 -0.812,-4.107 -2.175,-5.599c-2.097,-2.268 -4.775,-2.268 -6.467,-2.268c-2.462,0 -4.285,0.216 -4.82,0.216c-0.693,0 -1.474,-0.216 -2.705,-0.216l0,0.337c1.139,0 1.88,0.125 1.88,1.675l0,11.31c0,1.856 -0.598,2.325 -1.316,2.325l-0.632,-0.037l0,0.323Zm132.883,-6.914c0,-3.029 -1.779,-8.682 -7.154,-8.682c-3.842,0 -6.673,3.143 -6.673,7.405c0,3.356 2.283,7.867 7.235,7.867c3.971,0 6.592,-2.803 6.592,-6.59Zm-99.038,0c0,3.787 -2.618,6.59 -6.578,6.59c-4.966,0 -7.245,-4.511 -7.245,-7.867c0,-4.262 2.848,-7.405 6.687,-7.405c5.371,0 7.136,5.653 7.136,8.682Zm-213.415,0c0,3.787 -2.615,6.59 -6.576,6.59c-4.968,0 -7.238,-4.511 -7.238,-7.867c0,-4.262 2.828,-7.405 6.67,-7.405c5.385,0 7.144,5.653 7.144,8.682Zm134.432,0c0,3.787 -2.604,6.59 -6.555,6.59c-4.982,0 -7.245,-4.511 -7.245,-7.867c0,-4.262 2.834,-7.405 6.663,-7.405c5.399,0 7.137,5.653 7.137,8.682Zm-206.085,-8.348l-2.872,0c-0.277,0 -0.463,0.269 -0.463,0.539l0,12.732c0,0.906 0.159,1.54 2.699,1.54l0.152,-0.001c1.571,-0.005 3.009,-0.103 4.133,-0.609c3.217,-1.429 3.619,-4.731 3.619,-6.516c0,-2.052 -0.764,-4.417 -1.918,-5.67c-1.701,-1.857 -3.179,-2.015 -5.35,-2.015Zm254.947,0.539l0.453,-0.539l2.889,0c2.154,0 3.639,0.158 5.337,2.015c1.16,1.253 1.914,3.618 1.914,5.67c0,1.785 -0.412,5.087 -3.612,6.516c-1.17,0.522 -2.645,0.61 -4.282,0.61c-2.554,0 -2.699,-0.634 -2.699,-1.54l0,-12.732Zm-20.855,7.109l-2.367,-5.754l-2.324,5.754l4.691,0Zm-125.781,0l-2.351,-5.754l-2.324,5.754l4.675,0Zm211.349,0l4.688,0l-2.368,-5.754l-2.32,5.754Zm16.466,-6.846l0,5.354c0.568,0.31 1.126,0.606 2.361,0.606c1.528,0 3.615,-0.99 3.615,-3.345c0,-0.944 -0.571,-3.571 -4.096,-3.571c-1.88,0 -1.88,0.424 -1.88,0.956Zm-121.981,0l0,5.354c0.565,0.31 1.126,0.606 2.354,0.606c1.553,0 3.629,-0.99 3.629,-3.345c0,-0.944 -0.568,-3.571 -4.096,-3.571c-1.887,0 -1.887,0.424 -1.887,0.956Zm-230.503,-17.784c-3.4,8.235 -11.389,10.414 -15.698,10.414c-5.138,0 -8.445,-1.822 -14.409,-6.03c-7.069,-4.923 -7.891,-5.482 -9.91,-5.482c-3.206,0 -4.214,1.385 -4.952,2.56l-0.832,-0.454c1.746,-2.837 3.934,-4.296 7.252,-4.296c3.038,0 4.313,0.462 12.021,4.929c4.417,2.567 7.894,4.579 12.762,4.579c4.217,0 10.261,-1.459 12.934,-6.22l0.832,0Zm219.775,-52.306l0,-1.042c0.568,0 1.61,-0.08 3.589,-0.08c2.533,0 4.606,0.175 5.181,0.552c0.559,0.29 1.411,0.842 1.867,1.412l34.311,39.611l0,-32.482c0,-4.131 -0.463,-5.536 -1.4,-6.56c-0.579,-0.852 -2.273,-1.411 -3.308,-1.411c-0.562,0 -1.319,0 -1.888,0.097l0,-1.139c0.484,-0.08 2.256,-0.08 3.491,-0.08c1.042,0 2.354,0.269 4.424,0.269c1.799,0 3.406,-0.269 4.813,-0.269c0.751,0 1.235,0 1.897,0.08l0,1.139c-0.487,-0.097 -0.95,-0.097 -1.43,-0.097c-3.481,0 -4.62,1.6 -4.62,7.971l0,39.53c0,0.27 -0.095,0.731 -0.562,1.031l-0.555,0.088c-0.196,0 -0.663,0 -1.045,-0.182l-36.103,-42.623l0,33.145c0,4.117 0.474,5.536 1.424,6.56c0.551,0.846 2.263,1.412 3.301,1.412c0.562,0 1.313,0 1.881,-0.088l0,1.115c-0.463,0.098 -2.27,0.098 -3.484,0.098c-1.035,0 -2.364,-0.286 -4.437,-0.286c-1.78,0 -3.39,0.286 -4.803,0.286c-0.761,0 -1.228,0 -1.888,-0.098l0,-1.115c0.467,0.088 0.954,0.088 1.417,0.088c3.494,0 4.621,-1.607 4.621,-7.972l0,-35.494l-1.786,-1.782c-1.417,-1.412 -1.796,-1.684 -3.785,-1.684l-1.123,0Zm59.94,30.977c0,8.399 6.569,17.59 20.778,17.59c15.281,0 20.788,-12.196 20.788,-21.047c0,-8.399 -6.586,-17.607 -20.788,-17.607c-15.268,0 -20.778,12.213 -20.778,21.064Zm64.266,16.123l-0.964,0l-13.526,-30.319c-2.601,-5.812 -2.956,-5.812 -5.476,-5.974l0,-0.785c0.342,-0.084 0.775,-0.172 1.133,-0.172c0.778,0 2.777,0.354 4.509,0.354c1.042,0 3.305,-0.354 3.903,-0.354c0.785,0 1.647,0.172 2.689,0.354l0,0.765c-0.605,-0.081 -1.549,-0.162 -1.985,-0.162c-1.489,0 -1.827,0.863 -1.827,1.9c0,0.785 0.179,1.038 0.771,2.527l11.805,25.811l9.805,-23.156c0.785,-1.722 0.873,-3.288 0.873,-4.228c0,-1.307 -0.775,-2.692 -1.214,-2.773c-0.261,0 -0.788,-0.081 -1.387,-0.081c-0.528,0 -0.957,0.081 -1.39,0.081l0,-0.684c0.172,-0.098 1.041,-0.266 1.474,-0.266c0.782,0 2.95,0.35 3.636,0.35c0.799,0 3.044,-0.438 3.914,-0.438c0.521,0 1.133,0 1.823,0.088l0,0.869c-0.352,-0.091 -0.606,-0.091 -0.869,-0.091c-0.433,0 -2.429,0 -4.337,4.491l-13.36,31.893Zm-273.534,-0.549c0.606,0.084 0.944,0.169 2.033,0.169c0.863,0 2.466,-0.331 4.411,-0.331c2.283,0 3.145,0.331 4.065,0.331c0.856,0 1.62,-0.085 2.297,-0.169l0,-0.835c-0.514,0.07 -1.11,0.155 -1.698,0.155c-3.142,0 -3.812,-3.282 -3.812,-4.889l0,-25.228l27.106,30.797c0.348,0.428 0.68,0.499 0.93,0.499c0.423,0 1.022,-0.162 1.022,-0.765l0,-29.099c0,-4.141 0.852,-4.717 2.11,-5.576c1.789,0 1.955,0 2.97,0.171l0,-0.832c-0.758,-0.175 -1.356,-0.263 -2.371,-0.263c-0.937,0 -2.29,0.412 -3.213,0.412c-1.272,0 -2.463,-0.412 -3.995,-0.412c-0.673,0 -1.356,0 -2.198,0.166l0,0.758c0.517,-0.085 1.018,-0.085 1.525,-0.085c0.592,0 1.103,0 1.691,0.085c1.705,1.526 1.877,3.891 1.877,6.253l0,22.698l-25.009,-28.176c-1.346,-1.533 -3.206,-1.699 -5.834,-1.699c-1.353,0 -2.716,0.088 -3.907,0.337l0,0.849c0.684,-0.091 1.191,-0.171 1.877,-0.171c1.523,0 2.03,0.421 3.045,1.516l0.845,0.94l0,24.544c0,0.259 -0.088,5.744 -2.117,7.015l-1.773,0.155c-0.595,0 -1.444,-0.085 -1.877,-0.155l0,0.835Zm-128.265,-21.764c0,11.074 7.888,22.216 25.506,22.216c16.34,0 24.874,-14.426 24.874,-24.679c0,-14.804 -10.38,-24.224 -25.053,-24.224c-14.226,0 -25.327,11.792 -25.327,26.687Zm341.616,2.477c0,-10.091 6.758,-15.562 15.19,-15.562c10.472,0 17.757,9.899 17.757,19.72c0,10.073 -6.744,15.565 -15.193,15.565c-10.479,0 -17.754,-9.919 -17.754,-19.723Zm-283.489,-15.563c0.852,-0.091 1.522,-0.176 2.55,-0.176c2.118,0 2.872,2.719 2.872,5.745l0.091,14.939c0,4.565 0,14.77 13.969,14.77c13.898,0 14.913,-9.373 14.913,-14.855l0,-14.44c0,-4.632 1.613,-6.074 3.981,-6.074c0.342,0 0.768,0 1.11,0.091l0,-0.752c-0.68,-0.249 -0.768,-0.249 -1.871,-0.249c-1.36,0 -3.47,0.398 -4.404,0.398c-0.764,0 -3.135,-0.398 -4.404,-0.398c-0.507,0 -1.018,0.074 -1.535,0.249l0,0.752c0.44,-0.091 0.778,-0.091 1.103,-0.091c3.659,0 4.407,3.723 4.407,7.004l0,13.686c0,3.035 0,13.166 -11.849,13.166c-8.476,0 -11.273,-6.506 -11.273,-11.162l0,-18.045c0,-1.775 1.35,-4.734 3.305,-4.734c0.849,0 1.363,0.085 1.941,0.26l0,-0.751c-0.419,-0.182 -0.93,-0.334 -2.614,-0.334c-0.761,0 -4.58,0.398 -5.426,0.398c-0.51,0 -3.311,-0.398 -3.984,-0.398l-1.945,0.074l-0.937,0.175l0,0.752Zm375.651,18.631l-3.758,10.057c-0.426,1.186 -0.609,2.22 -0.609,2.81c0,1.196 0.518,2.641 2.138,2.641c0.602,0 1.201,-0.071 1.809,-0.071l0,0.755c-0.432,0.094 -0.947,0.094 -1.461,0.094c-1.373,0 -3.338,-0.171 -4.617,-0.171c-1.627,0 -2.919,0.171 -3.771,0.171c-0.781,0 -1.021,0 -1.461,-0.094l0,-0.755c0.44,0 0.856,0.071 1.295,0.071c0.43,0 1.282,-0.071 1.367,-0.158l1.373,-1.112c0.676,-1.024 1.62,-2.389 1.955,-3.319l11.906,-31.4l0.947,0l11.912,29.945c1.364,3.403 1.881,4.343 2.821,5.721c0.081,0.165 1.279,0.252 1.719,0.252c0.416,0 1.359,-0.252 1.62,-0.252l0,0.93c-0.521,0.077 -1.025,0.171 -1.708,0.171c-0.775,0 -3.251,-0.336 -5.135,-0.336c-1.982,0 -3.693,0.336 -4.891,0.336c-0.514,0 -0.94,0 -1.552,-0.094l0,-0.93c0.527,0.088 1.126,0.175 1.552,0.175c0.342,0 0.944,-0.087 1.296,-0.175c0.416,-0.077 1.015,-0.775 1.015,-1.883c0,-0.852 -0.254,-1.53 -0.43,-1.958l-4.617,-11.421l-10.715,0Zm-212.734,0.106l-3.296,8.744l-0.456,1.208c-0.413,1.176 -0.575,2.2 -0.575,2.779c0,1.183 0.501,2.618 2.104,2.618c0.599,0 1.204,-0.07 1.789,-0.07l0,0l0.011,0l0,0.761c-0.443,0.074 -0.943,0.074 -1.451,0.074c-1.346,0 -3.301,-0.165 -4.566,-0.165c-1.617,0 -2.885,0.165 -3.737,0.165c-0.641,0 -0.922,0 -1.245,-0.044c-0.062,-0.008 -0.126,-0.018 -0.194,-0.03l0,-0.761c0.423,0 0.846,0.07 1.272,0.07c0.419,0 1.265,-0.07 1.349,-0.158l1.357,-1.108c0.275,-0.414 0.594,-0.882 0.898,-1.354c0.439,-0.687 0.848,-1.383 1.044,-1.928l10.834,-28.547l0.953,-2.513l0.937,0l0.001,0l1.728,4.35l10.048,25.275c1.353,3.365 1.84,4.299 2.787,5.663c0.088,0.162 1.268,0.25 1.691,0.25c0.055,0 0.117,-0.004 0.184,-0.011c0.35,-0.036 0.854,-0.152 1.179,-0.208c0.108,-0.019 0.195,-0.031 0.251,-0.031l0,0.001l0,0l0,0.919c-0.507,0.091 -1.021,0.165 -1.711,0.165c-0.751,0 -3.196,-0.333 -5.063,-0.333c-1.955,0 -3.646,0.333 -4.837,0.333c-0.511,0 -0.93,0 -1.525,-0.074l0,0l-0.002,0l0,-0.937l0.002,0.001l0,-0.004c0.302,0.054 0.635,0.107 0.943,0.141c0.212,0.023 0.411,0.038 0.581,0.038c0.106,0 0.236,-0.009 0.374,-0.023c0.31,-0.031 0.662,-0.093 0.899,-0.156c0.149,-0.024 0.318,-0.124 0.475,-0.29c0.291,-0.311 0.538,-0.851 0.538,-1.563c0,-0.849 -0.247,-1.526 -0.416,-1.937l-4.569,-11.31l-10.586,0Zm-35.044,16.112l-2.878,0l0,-0.92c0.588,0.088 1.024,0.088 1.613,0.088l0.196,-0.001c0.465,-0.001 0.977,-0.01 1.495,-0.087c1.532,-1.792 2.209,-2.46 2.209,-7.2l0,-23.176c0,-2.547 0,-3.211 -3.301,-3.211c-6.589,0 -8.583,3.111 -9.776,5.14l-0.057,0.096l-0.517,-0.411c1.116,-1.965 2.127,-3.643 2.465,-4.411c0.332,-0.674 0.768,-1.684 1.015,-2.281c0.338,-0.074 0.677,-0.074 0.937,-0.074l0.014,0.001c0.305,0.011 3.177,0.342 4.271,0.344l0.056,0c0.09,-0.001 0.166,-0.005 0.225,-0.011c1.624,0.084 5.859,0.263 7.884,0.263l0.085,-0.001c0.928,-0.005 3.598,-0.09 4.823,-0.09l4.492,-0.432c2.801,0 3.562,0.924 3.562,2.874c0,0.909 -0.908,2.559 -2.953,4.953l-0.098,0.114l-0.602,-0.256c1.031,-1.516 1.451,-2.105 1.451,-3.2c0,-2.461 -2.787,-2.538 -6.347,-2.541l-0.347,0c-2.875,0 -2.966,0.762 -2.966,1.618l0,26.72c0,4.239 1.786,5.26 2.885,5.26l2.188,-0.088l0,0.849c-1.258,0.062 -1.415,0.07 -2.166,0.071l-0.364,0c-1.19,0 -3.981,-0.334 -5.083,-0.334c-1.082,0 -3.734,0.323 -4.382,0.334l-0.029,0Zm-78.859,0c-0.423,0 -1.184,-0.071 -1.614,-0.162l0,-0.849c0.602,0.091 1.269,0.091 1.864,0.091l0.217,0c0.501,-0.001 0.959,-0.011 1.477,-0.091c1.1,-1.095 1.526,-1.681 1.526,-5.407l0,-23.446c0,-2.959 -0.338,-3.72 -1.776,-4.987c-0.595,-0.076 -1.122,-0.086 -1.698,-0.087l-0.25,0c-0.574,0 -1.074,0 -1.72,0.079l-0.063,0.008l0,-0.748c0.853,-0.175 1.441,-0.262 2.706,-0.262l0.038,0c0.838,0.01 4.214,0.347 4.887,0.347l0.041,-0.001c0.912,-0.01 4.37,-0.346 5.036,-0.346l0.031,0c0.668,0.005 1.588,0.163 2.167,0.262l0,0.748c-0.666,-0.076 -0.873,-0.086 -1.542,-0.087l-0.318,0c-2.121,0 -3.227,1.432 -3.227,3.547l0,26.59c0,1.846 0.937,3.12 1.624,3.79c0.588,0.091 1.099,0.179 1.677,0.179l0.057,-0.001c0.58,-0.005 1.159,-0.09 1.729,-0.178l0,0.849c-0.475,0.152 -0.576,0.161 -1.287,0.162l-0.15,0c-1.015,0 -5.256,-0.334 -6.088,-0.334c-0.843,0 -4.471,0.323 -5.307,0.334l-0.037,0Zm-102.091,-24.681c0,-12.799 8.256,-22.212 19.445,-22.212c15.701,0 20.838,17.91 20.838,26.053c0,11.334 -7.62,19.656 -19.184,19.656c-14.5,0 -21.099,-13.901 -21.099,-23.497Zm216.661,7.224l9.405,0l-4.921,-12.168l-4.484,12.168Zm222.261,-0.126l-4.958,-12.28l-4.556,12.28l9.514,0Z" style="fill-rule:nonzero;"></path>
</svg>